<?xml version="1.0" encoding="UTF-8" standalone="no"?>
<svg
   xmlns:dc="http://purl.org/dc/elements/1.1/"
   xmlns:cc="http://creativecommons.org/ns#"
   xmlns:rdf="http://www.w3.org/1999/02/22-rdf-syntax-ns#"
   xmlns:svg="http://www.w3.org/2000/svg"
   xmlns="http://www.w3.org/2000/svg"
   xmlns:sodipodi="http://sodipodi.sourceforge.net/DTD/sodipodi-0.dtd"
   xmlns:inkscape="http://www.inkscape.org/namespaces/inkscape"
   width="210mm"
   height="297mm"
   viewBox="0 0 210 297"
   version="1.1"
   id="svg8"
   sodipodi:docname="audioOn.svg"
   inkscape:version="1.0.2 (e86c870879, 2021-01-15, custom)">
  <defs
     id="defs2" />
  <sodipodi:namedview
     id="base"
     pagecolor="#ffffff"
     bordercolor="#666666"
     borderopacity="1.0"
     inkscape:pageopacity="0.0"
     inkscape:pageshadow="2"
     inkscape:zoom="4"
     inkscape:cx="375.24491"
     inkscape:cy="462.46526"
     inkscape:document-units="px"
     inkscape:current-layer="layer1"
     inkscape:document-rotation="0"
     showgrid="false"
     inkscape:pagecheckerboard="true"
     showborder="false"
     inkscape:window-width="1278"
     inkscape:window-height="1368"
     inkscape:window-x="1266"
     inkscape:window-y="0"
     inkscape:window-maximized="0"
     inkscape:object-nodes="false" />
  <metadata
     id="metadata5">
    <rdf:RDF>
      <cc:Work
         rdf:about="">
        <dc:format>image/svg+xml</dc:format>
        <dc:type
           rdf:resource="http://purl.org/dc/dcmitype/StillImage" />
        <dc:title />
      </cc:Work>
    </rdf:RDF>
  </metadata>
  <g
     inkscape:label="Layer 1"
     inkscape:groupmode="layer"
     id="layer1">
    <path
       id="path833"
       style="fill:#ffffff;stroke-width:0.139852"
       d="M 375.98047 412.90234 C 371.72515 412.84943 360.86715 422.49036 355.25195 430.37109 L 351.82617 430.37109 C 349.5679 430.37109 347.75 432.38557 347.75 434.88867 L 347.75 439.91016 C 347.75 442.41322 349.5679 444.42773 351.82617 444.42773 L 354.56055 444.42773 C 360.52378 453.36575 374.21813 465.33407 377.17969 462.4707 C 380.99127 458.78544 380.99127 417.01925 377.17969 413.33398 C 376.8819 413.04598 376.4766 412.9085 375.98047 412.90234 z M 389.19727 421.73633 L 385.41406 423.9375 A 20.281367 20.457684 0 0 1 391.51367 438.56445 A 20.281367 20.457684 0 0 1 385.94531 452.64453 L 389.70117 454.83203 A 24.517349 24.730492 0 0 0 395.75 438.56445 A 24.517349 24.730492 0 0 0 389.19727 421.73633 z "
       transform="scale(0.26458333)"
       inkscape:export-filename="F:\Dev\Godot\Projects\KidsCanCode\circle_jump\assets\images\buttons\audioOn.png"
       inkscape:export-xdpi="192"
       inkscape:export-ydpi="192" />
  </g>
</svg>
