<?xml version="1.0" encoding="UTF-8" standalone="no"?>
<svg
   xmlns:dc="http://purl.org/dc/elements/1.1/"
   xmlns:cc="http://creativecommons.org/ns#"
   xmlns:rdf="http://www.w3.org/1999/02/22-rdf-syntax-ns#"
   xmlns:svg="http://www.w3.org/2000/svg"
   xmlns="http://www.w3.org/2000/svg"
   xmlns:sodipodi="http://sodipodi.sourceforge.net/DTD/sodipodi-0.dtd"
   xmlns:inkscape="http://www.inkscape.org/namespaces/inkscape"
   width="210mm"
   height="297mm"
   viewBox="0 0 210 297"
   version="1.1"
   id="svg1472"
   sodipodi:docname="gear.svg"
   inkscape:version="1.0.2 (e86c870879, 2021-01-15, custom)">
  <defs
     id="defs1466" />
  <sodipodi:namedview
     id="base"
     pagecolor="#ffffff"
     bordercolor="#666666"
     borderopacity="1.0"
     inkscape:pageopacity="0.0"
     inkscape:pageshadow="2"
     inkscape:zoom="3.9999998"
     inkscape:cx="258.38806"
     inkscape:cy="593.52911"
     inkscape:document-units="px"
     inkscape:current-layer="layer1"
     inkscape:document-rotation="0"
     showgrid="false"
     showborder="false"
     inkscape:window-width="1278"
     inkscape:window-height="1368"
     inkscape:window-x="1266"
     inkscape:window-y="0"
     inkscape:window-maximized="0"
     inkscape:pagecheckerboard="true" />
  <metadata
     id="metadata1469">
    <rdf:RDF>
      <cc:Work
         rdf:about="">
        <dc:format>image/svg+xml</dc:format>
        <dc:type
           rdf:resource="http://purl.org/dc/dcmitype/StillImage" />
        <dc:title />
      </cc:Work>
    </rdf:RDF>
  </metadata>
  <g
     inkscape:label="Layer 1"
     inkscape:groupmode="layer"
     id="layer1">
    <path
       id="path831"
       style="fill:#ffffff;stroke-width:0.239946"
       d="m 58.107065,144.09198 a 6.6145838,6.9464415 0 0 0 -2.425133,1.47055 l 0.620118,2.82534 -2.640074,0.84863 a 6.6145838,6.9464415 0 0 0 -0.149998,1.47006 6.6145838,6.9464415 0 0 0 0.149998,1.47007 l 2.640074,0.84861 -0.620118,2.82536 a 6.6145838,6.9464415 0 0 0 2.425133,1.47055 l 2.019497,-1.97722 2.019497,1.97722 a 6.6145838,6.9464415 0 0 0 2.425133,-1.47055 l -0.620118,-2.82536 2.640074,-0.84861 a 6.6145838,6.9464415 0 0 0 0.149997,-1.47007 6.6145838,6.9464415 0 0 0 -0.149997,-1.47006 l -2.640074,-0.84863 0.620118,-2.82534 a 6.6145838,6.9464415 0 0 0 -2.425133,-1.47055 l -2.019497,1.97722 z m 2.019497,3.8483 a 2.6341259,2.7662816 0 0 1 2.634126,2.76628 2.6341259,2.7662816 0 0 1 -2.634126,2.76629 2.6341259,2.7662816 0 0 1 -2.634126,-2.76629 2.6341259,2.7662816 0 0 1 2.634126,-2.76628 z"
       inkscape:export-filename="F:\Dev\Godot\Projects\KidsCanCode\circle_jump\assets\images\buttons\gear.png"
       inkscape:export-xdpi="192"
       inkscape:export-ydpi="192" />
  </g>
</svg>
