<?xml version="1.0" encoding="UTF-8" standalone="no"?>
<svg
   xmlns:dc="http://purl.org/dc/elements/1.1/"
   xmlns:cc="http://creativecommons.org/ns#"
   xmlns:rdf="http://www.w3.org/1999/02/22-rdf-syntax-ns#"
   xmlns:svg="http://www.w3.org/2000/svg"
   xmlns="http://www.w3.org/2000/svg"
   xmlns:sodipodi="http://sodipodi.sourceforge.net/DTD/sodipodi-0.dtd"
   xmlns:inkscape="http://www.inkscape.org/namespaces/inkscape"
   width="100"
   height="100"
   viewBox="0 0 26.458333 26.458334"
   version="1.1"
   id="svg8"
   inkscape:version="1.0.2 (e86c870879, 2021-01-15, custom)"
   sodipodi:docname="musicOn.svg"
   inkscape:export-filename="F:\Dev\Godot\Projects\KidsCanCode\circle_jump\assets\images\buttons\musicOn.png"
   inkscape:export-xdpi="96"
   inkscape:export-ydpi="96">
  <defs
     id="defs2" />
  <sodipodi:namedview
     id="base"
     pagecolor="#ffffff"
     bordercolor="#666666"
     borderopacity="1.0"
     inkscape:pageopacity="0.0"
     inkscape:pageshadow="2"
     inkscape:zoom="5.6568542"
     inkscape:cx="52.507305"
     inkscape:cy="55.085481"
     inkscape:document-units="px"
     inkscape:current-layer="layer1"
     inkscape:document-rotation="0"
     showgrid="false"
     inkscape:pagecheckerboard="true"
     showborder="true"
     inkscape:snap-intersection-paths="false"
     inkscape:object-paths="false"
     inkscape:snap-smooth-nodes="true"
     inkscape:window-width="1278"
     inkscape:window-height="1368"
     inkscape:window-x="-7"
     inkscape:window-y="0"
     inkscape:window-maximized="0"
     inkscape:snap-nodes="false"
     units="px" />
  <metadata
     id="metadata5">
    <rdf:RDF>
      <cc:Work
         rdf:about="">
        <dc:format>image/svg+xml</dc:format>
        <dc:type
           rdf:resource="http://purl.org/dc/dcmitype/StillImage" />
        <dc:title />
      </cc:Work>
    </rdf:RDF>
  </metadata>
  <g
     inkscape:label="Layer 1"
     inkscape:groupmode="layer"
     id="layer1">
    <path
       id="rect833"
       style="fill:#ffffff;stroke-width:0.0885105"
       d="m 8.5093415,2.6458351 c -0.103072,0 -0.201064,0.016736 -0.2901567,0.047088 -0.022224,0.00752 -0.044144,0.016128 -0.065184,0.025328 -0.105408,0.046192 -0.1953776,0.11232 -0.2620848,0.1922512 -0.01328,0.016 -0.02568,0.032528 -0.037104,0.049584 0,0 0,1.552e-4 0,1.552e-4 -0.057152,0.085248 -0.0896,0.1829216 -0.0896,0.287056 V 6.6596531 16.86843 A 4.3317824,3.5012536 0 0 0 6.9776153,16.80999 4.3317824,3.5012536 0 0 0 2.6458336,20.311242 4.3317824,3.5012536 0 0 0 6.9776153,23.812498 4.3317824,3.5012536 0 0 0 11.3094,20.311242 4.3317824,3.5012536 0 0 0 11.2771,19.885864 c 0.02094,-0.05568 0.0323,-0.11472 0.0323,-0.176087 V 7.2611236 h 8.958913 v 6.4243534 a 4.3317824,3.5012536 0 0 0 -0.787597,-0.05844 4.3317824,3.5012536 0 0 0 -4.331782,3.501252 4.3317824,3.5012536 0 0 0 4.331782,3.501255 4.3317824,3.5012536 0 0 0 4.331784,-3.501255 4.3317824,3.5012536 0 0 0 -0.0323,-0.425378 c 0.02094,-0.05568 0.0323,-0.11472 0.0323,-0.17609 V 6.6596595 3.2473057 c 0,-0.3332338 -0.331862,-0.6014674 -0.744142,-0.6014674 z"
       inkscape:export-filename="F:\Dev\Godot\Projects\KidsCanCode\circle_jump\assets\images\buttons\musicOn.png"
       inkscape:export-xdpi="50.599998"
       inkscape:export-ydpi="50.599998" />
  </g>
</svg>
