<?xml version="1.0" encoding="UTF-8" standalone="no"?>
<svg
   xmlns:dc="http://purl.org/dc/elements/1.1/"
   xmlns:cc="http://creativecommons.org/ns#"
   xmlns:rdf="http://www.w3.org/1999/02/22-rdf-syntax-ns#"
   xmlns:svg="http://www.w3.org/2000/svg"
   xmlns="http://www.w3.org/2000/svg"
   xmlns:sodipodi="http://sodipodi.sourceforge.net/DTD/sodipodi-0.dtd"
   xmlns:inkscape="http://www.inkscape.org/namespaces/inkscape"
   width="210mm"
   height="297mm"
   viewBox="0 0 210 297"
   version="1.1"
   id="svg8"
   inkscape:version="1.0.2 (e86c870879, 2021-01-15, custom)"
   sodipodi:docname="return.svg">
  <defs
     id="defs2" />
  <sodipodi:namedview
     id="base"
     pagecolor="#ffffff"
     bordercolor="#666666"
     borderopacity="1.0"
     inkscape:pageopacity="0.0"
     inkscape:pageshadow="2"
     inkscape:zoom="0.24748737"
     inkscape:cx="354.06719"
     inkscape:cy="56.526525"
     inkscape:document-units="px"
     inkscape:current-layer="layer1"
     inkscape:document-rotation="0"
     showgrid="false"
     inkscape:pagecheckerboard="true"
     showborder="false"
     inkscape:window-width="1278"
     inkscape:window-height="1368"
     inkscape:window-x="1273"
     inkscape:window-y="0"
     inkscape:window-maximized="0"
     inkscape:snap-smooth-nodes="true" />
  <metadata
     id="metadata5">
    <rdf:RDF>
      <cc:Work
         rdf:about="">
        <dc:format>image/svg+xml</dc:format>
        <dc:type
           rdf:resource="http://purl.org/dc/dcmitype/StillImage" />
        <dc:title></dc:title>
      </cc:Work>
    </rdf:RDF>
  </metadata>
  <g
     inkscape:label="Layer 1"
     inkscape:groupmode="layer"
     id="layer1">
    <path
       id="path833"
       style="fill:#ffffff;stroke-width:2.45678"
       d="M 333.81055 -103.54883 A 379.04636 379.04636 0 0 0 92.568359 -16.871094 C 12.165039 -58.630586 -64.911062 -85.819156 -90.859375 -70.837891 C -152.31724 -35.355176 -152.31724 366.78291 -90.859375 402.26562 C -29.401509 437.74834 318.86133 236.68027 318.86133 165.71484 C 318.86133 141.29766 277.62894 101.4763 221.03906 61.189453 A 242.1685 242.1685 0 0 1 333.54102 33.328125 A 242.1685 242.1685 0 0 1 333.81055 33.328125 A 242.1685 242.1685 0 0 1 575.97852 275.49609 A 242.1685 242.1685 0 0 1 374.01172 514.30469 A 72.416836 69.141266 0 0 0 372.41602 514.28711 A 72.416836 69.141266 0 0 0 300 583.42969 A 72.416836 69.141266 0 0 0 372.41602 652.57031 A 72.416836 69.141266 0 0 0 391.49414 650.12695 A 379.04636 379.04636 0 0 0 712.85742 275.49609 A 379.04636 379.04636 0 0 0 333.81055 -103.54883 z "
       transform="scale(0.26458333)" />
  </g>
</svg>
