<?xml version="1.0" encoding="UTF-8" standalone="no"?>
<svg
   xmlns:dc="http://purl.org/dc/elements/1.1/"
   xmlns:cc="http://creativecommons.org/ns#"
   xmlns:rdf="http://www.w3.org/1999/02/22-rdf-syntax-ns#"
   xmlns:svg="http://www.w3.org/2000/svg"
   xmlns="http://www.w3.org/2000/svg"
   xmlns:sodipodi="http://sodipodi.sourceforge.net/DTD/sodipodi-0.dtd"
   xmlns:inkscape="http://www.inkscape.org/namespaces/inkscape"
   width="400"
   height="400"
   viewBox="0 0 105.83333 105.83333"
   version="1.1"
   id="svg8"
   inkscape:version="1.0.2 (e86c870879, 2021-01-15, custom)"
   sodipodi:docname="circle.svg"
   inkscape:export-filename="F:\Dev\Godot\Projects\KidsCanCode\circle_jump\assets\images\circle.png"
   inkscape:export-xdpi="96"
   inkscape:export-ydpi="96">
  <defs
     id="defs2" />
  <sodipodi:namedview
     id="base"
     pagecolor="#ffffff"
     bordercolor="#666666"
     borderopacity="1.0"
     inkscape:pageopacity="0.0"
     inkscape:pageshadow="2"
     inkscape:zoom="1.4142136"
     inkscape:cx="217.85061"
     inkscape:cy="215.14264"
     inkscape:document-units="mm"
     inkscape:current-layer="layer1"
     inkscape:document-rotation="0"
     showgrid="false"
     inkscape:pagecheckerboard="true"
     showborder="true"
     inkscape:window-width="1278"
     inkscape:window-height="1368"
     inkscape:window-x="1266"
     inkscape:window-y="0"
     inkscape:window-maximized="0"
     units="px" />
  <metadata
     id="metadata5">
    <rdf:RDF>
      <cc:Work
         rdf:about="">
        <dc:format>image/svg+xml</dc:format>
        <dc:type
           rdf:resource="http://purl.org/dc/dcmitype/StillImage" />
        <dc:title></dc:title>
      </cc:Work>
    </rdf:RDF>
  </metadata>
  <g
     inkscape:label="Layer 1"
     inkscape:groupmode="layer"
     id="layer1">
    <path
       id="path835"
       style="fill:#ffffff;stroke-width:0.590899"
       d="M 52.865536,17.462509 A 35.454148,35.454139 0 0 0 17.4625,52.916671 35.454148,35.454139 0 0 0 52.916668,88.370833 35.454148,35.454139 0 0 0 88.370833,52.916671 35.454148,35.454139 0 0 0 52.916668,17.462509 a 35.454148,35.454139 0 0 0 -0.05111,0 z m 0.05111,9.31057 A 26.143575,26.143569 0 0 1 79.060237,52.916671 26.143575,26.143569 0 0 1 52.916642,79.060264 26.143575,26.143569 0 0 1 26.773044,52.916671 26.143575,26.143569 0 0 1 52.916642,26.773079 Z"
       inkscape:export-filename="F:\Dev\Godot\Projects\KidsCanCode\circle_jump\assets\images\circle.png"
       inkscape:export-xdpi="143.28358"
       inkscape:export-ydpi="143.28358" />
  </g>
</svg>
